<svg width="302" height="326" viewBox="0 0 302 326" fill="none" xmlns="http://www.w3.org/2000/svg">
<g opacity="0.4">
<path d="M57.8676 312.359C0.244278 302.284 -53.9725 260.618 -66.8988 203.565C-71.8643 181.668 -70.8322 158.406 -78.7713 137.404C-87.0135 115.614 -104.429 97.6648 -109.575 74.9446C-114.764 52.044 -105.468 26.5162 -86.7825 12.3052C-68.0968 -1.90576 -41.0029 -4.02766 -20.3251 7.08707C-2.65707 16.5923 9.51139 34.181 26.9557 44.0904C54.194 59.5644 88.2455 53.4586 118.385 44.9277C148.532 36.3967 180.144 25.7872 210.479 33.6253C230.933 38.9084 248.615 52.3182 262.155 68.5356C287.322 98.6681 299.266 139.461 294.33 178.413C288.816 221.933 262.407 266.291 220.561 282.422C167.391 302.926 116.032 322.529 57.8676 312.359Z" fill="#FFE9AB"/>
<path d="M-5.46458 19.833C-37.6901 24.5243 -60.9443 49.0488 -79.9476 73.5445C-81.355 75.3633 -78.8145 77.9399 -77.3854 76.1067C-58.5481 51.8203 -35.3227 26.9132 -3.05392 23.1385C1.4858 22.6044 5.88116 22.6189 10.1033 23.0952L11.9076 19.6958C6.33585 18.9452 0.511398 18.9597 -5.46458 19.833Z" fill="#C36B68"/>
<path d="M41.8813 254.245C9.28771 272.736 -20.4478 281.895 -24.5328 274.699L-8.58971 302.796C-4.50469 309.992 25.2308 300.841 57.8244 282.342C90.418 263.852 113.535 243.022 109.45 235.827L93.5069 207.729C97.592 214.925 74.4748 235.754 41.8813 254.245Z" fill="#774747"/>
<path d="M41.8813 254.245C74.4749 235.754 97.592 214.925 93.5069 207.729C92.879 206.625 91.6521 205.911 89.9055 205.55C82.0314 203.551 64.8613 203.543 64.8613 203.543L25.7144 225.751L-13.4325 247.959C-13.4325 247.959 -22.2377 262.704 -24.5545 270.491C-25.1391 272.173 -25.1535 273.602 -24.5328 274.699C-20.455 281.895 9.28051 272.736 41.8813 254.245Z" fill="#9E5947"/>
<path d="M-2.26729 274.18C-5.88319 275.284 -9.17426 276.099 -12.0612 276.59L3.87468 304.687C6.76162 304.197 10.0527 303.381 13.6686 302.277L-2.26729 274.18Z" fill="#53363E"/>
<path d="M85.6545 222.734C80.4797 227.996 73.1252 234.015 64.219 240.229L80.1549 268.326C89.0611 262.112 96.4229 256.093 101.598 250.831L85.6545 222.734Z" fill="#53363E"/>
<path d="M-2.26727 274.18L1.39189 239.544L-5.24082 243.304L-12.0684 276.59C-9.17425 276.092 -5.88317 275.284 -2.26727 274.18Z" fill="#B6685A"/>
<path d="M85.6545 222.734L54.093 209.649L38.287 218.62L64.219 240.229C73.1252 234.015 80.4797 227.996 85.6545 222.734Z" fill="#B6685A"/>
<path d="M30.6313 234.443C53.8016 221.299 70.2316 206.496 67.3287 201.379C64.4259 196.261 43.2894 202.768 20.1191 215.911C-3.05121 229.055 -19.4813 243.858 -16.5784 248.976C-13.6755 254.093 7.46099 247.586 30.6313 234.443Z" fill="#E47979"/>
<path d="M27.2327 228.462C50.403 215.319 66.8331 200.515 63.9303 195.398C61.0274 190.28 39.8909 196.787 16.7205 209.93C-6.44977 223.074 -22.8797 237.877 -19.9769 242.995C-17.074 248.112 4.06243 241.606 27.2327 228.462Z" fill="#E47979"/>
<path d="M23.8407 222.478C47.011 209.334 63.441 194.531 60.5381 189.414C57.6352 184.296 36.4988 190.803 13.3285 203.946C-9.84186 217.09 -26.2718 231.893 -23.369 237.011C-20.4661 242.128 0.670346 235.621 23.8407 222.478Z" fill="#C36B68"/>
<path d="M20.4485 216.494C43.6188 203.35 60.0488 188.547 57.1459 183.429C54.2431 178.312 33.1066 184.818 9.93631 197.962C-13.234 211.106 -29.6641 225.909 -26.7612 231.026C-23.8583 236.144 -2.7218 229.637 20.4485 216.494Z" fill="#E47979"/>
<path d="M17.0498 210.512C40.2201 197.369 56.6502 182.565 53.7473 177.448C50.8444 172.33 29.7079 178.837 6.53761 191.98C-16.6327 205.124 -33.0627 219.927 -30.1598 225.045C-27.257 230.162 -6.12051 223.656 17.0498 210.512Z" fill="#E69494"/>
<path d="M13.6575 204.527C36.8278 191.384 53.2578 176.581 50.355 171.463C47.4521 166.346 26.3157 172.852 3.14534 185.996C-20.025 199.139 -36.455 213.943 -33.5522 219.06C-30.6493 224.177 -9.51278 217.671 13.6575 204.527Z" fill="#E47979"/>
<path d="M10.2654 198.544C33.4357 185.4 49.8657 170.597 46.9629 165.479C44.06 160.362 22.9235 166.868 -0.246828 180.012C-23.4171 193.155 -39.8471 207.959 -36.9443 213.076C-34.0414 218.193 -12.9049 211.687 10.2654 198.544Z" fill="#C36B68"/>
<path d="M6.86676 192.562C30.0371 179.419 46.467 164.615 43.5642 159.498C40.6613 154.38 19.5249 160.887 -3.64544 174.03C-26.8157 187.174 -43.2457 201.977 -40.3429 207.095C-37.44 212.212 -16.3036 205.706 6.86676 192.562Z" fill="#E47979"/>
<path d="M3.47455 186.577C26.6449 173.434 43.0748 158.631 40.172 153.513C37.2691 148.396 16.1327 154.902 -7.03765 168.046C-30.208 181.189 -46.638 195.993 -43.7352 201.11C-40.8323 206.227 -19.6958 199.721 3.47455 186.577Z" fill="#E47979"/>
<path d="M0.082243 180.593C23.2526 167.45 39.6826 152.646 36.7798 147.529C33.8769 142.412 12.7404 148.918 -10.4299 162.062C-33.6003 175.205 -50.0302 190.008 -47.1274 195.126C-44.2245 200.243 -23.0881 193.737 0.082243 180.593Z" fill="#E47979"/>
<path d="M-3.30988 174.609C19.8604 161.466 36.2904 146.662 33.3875 141.545C30.4847 136.427 9.34822 142.934 -13.8221 156.077C-36.9924 169.221 -53.4224 184.024 -50.5195 189.142C-47.6167 194.259 -26.4802 187.753 -3.30988 174.609Z" fill="#C36B68"/>
<path d="M-6.70852 168.628C16.4618 155.484 32.8918 140.681 29.9889 135.563C27.086 130.446 5.9496 136.952 -17.2207 150.096C-40.391 163.239 -56.8211 178.043 -53.9182 183.16C-51.0154 188.278 -29.8788 181.771 -6.70852 168.628Z" fill="#E47979"/>
<path d="M-10.1009 162.643C13.0694 149.499 29.4995 134.696 26.5966 129.579C23.6937 124.461 2.55721 130.968 -20.6131 144.111C-43.7834 157.255 -60.2134 172.058 -57.3105 177.176C-54.4077 182.293 -33.2712 175.786 -10.1009 162.643Z" fill="#E47979"/>
<path d="M34.5777 107.928C34.563 107.95 34.563 107.972 34.5557 107.994C34.563 107.965 34.5704 107.943 34.5777 107.928Z" fill="#774747"/>
<path d="M-79.464 173C-71.1569 174.4 -58.541 173.83 -54.9539 173.635C-54.6508 173.627 -54.3332 173.606 -54.0084 173.577C-53.9868 173.577 -53.9652 173.577 -53.9652 173.577C-45.4487 172.87 -29.7942 166.843 -13.0861 157.367C3.62209 147.89 16.8226 137.548 21.8026 130.598C21.8026 130.598 21.8098 130.583 21.8243 130.561C22.0119 130.294 22.1923 130.035 22.3583 129.775C24.372 126.801 31.3295 116.264 34.3897 108.411C30.6944 117.816 10.1105 134.87 -17.099 150.301C-44.3012 165.732 -69.4969 174.652 -79.464 173Z" fill="#9E5947"/>
<path d="M-33.0349 122.197C-65.6284 140.687 -95.3639 149.846 -99.449 142.651L-83.5059 170.748C-82.8852 171.837 -81.6798 172.545 -79.9693 172.906C-79.9477 172.913 -79.9332 172.92 -79.9115 172.92C-79.7672 172.949 -79.6156 172.971 -79.4713 172.999C-69.5041 174.652 -44.3012 165.732 -17.099 150.294C10.1032 134.863 30.6872 117.808 34.3897 108.404C34.4474 108.267 34.5051 108.123 34.5484 107.986C34.5557 107.964 34.5629 107.949 34.5629 107.928C35.1258 106.275 35.1402 104.868 34.5268 103.778L18.5837 75.6807C22.6759 82.8836 -0.434082 103.706 -33.0349 122.197Z" fill="#774747"/>
<path d="M-33.0209 122.237C-0.423687 103.746 22.6918 82.9209 18.6089 75.7233C14.526 68.5257 -15.2091 77.6808 -47.8064 96.1718C-80.4036 114.663 -103.519 135.488 -99.4361 142.685C-95.3533 149.883 -65.6181 140.728 -33.0209 122.237Z" fill="#9E5947"/>
<path d="M28.8972 116.444L28.89 116.437C23.5492 122.399 14.9677 129.573 4.24273 136.97C4.24273 136.97 3.54261 141.698 2.30844 147.724C11.525 141.344 18.4825 135.217 21.7953 130.59C21.7953 130.59 21.8025 130.576 21.817 130.554C22.0046 130.287 22.185 130.027 22.351 129.768C22.8996 128.959 23.809 127.588 24.906 125.87C26.9269 121.785 28.6374 118.003 28.8972 116.444Z" fill="#774747"/>
<path d="M-11.6932 108.873L4.24999 136.97C14.9822 129.565 23.5564 122.391 28.8973 116.437L12.9613 88.3471H12.9541C7.60601 94.3014 -0.975437 101.475 -11.6932 108.873Z" fill="#53363E"/>
<path d="M-11.7003 108.873C-0.97533 101.475 7.60604 94.3014 12.9541 88.3471L-40.4254 109.169L-11.7003 108.873Z" fill="#B6685A"/>
<path d="M199.422 228.386C168.084 220.086 144.166 207.744 145.999 200.822L138.839 227.83C137.006 234.751 160.924 247.086 192.262 255.393C223.6 263.693 250.484 264.819 252.318 257.897L259.477 230.89C257.644 237.804 230.759 236.685 199.422 228.386Z" fill="#774747"/>
<path d="M199.422 228.385C230.759 236.685 257.644 237.811 259.477 230.89C259.759 229.829 259.434 228.645 258.568 227.361C254.916 221.363 244.306 210.956 244.306 210.956L206.675 200.988L169.044 191.021C169.044 191.021 154.674 194.803 148.532 198.21C147.154 198.895 146.28 199.769 145.999 200.822C144.173 207.744 168.084 220.078 199.422 228.385Z" fill="#9E5947"/>
<path d="M160.08 213.98C157.178 212.471 154.652 210.984 152.567 209.541L145.407 236.548C147.486 237.992 150.012 239.479 152.92 240.987L160.08 213.98Z" fill="#53363E"/>
<path d="M245.548 235.408C239.168 235.524 230.976 234.795 221.716 233.243L214.556 260.25C223.824 261.802 232.015 262.531 238.395 262.415L245.548 235.408Z" fill="#53363E"/>
<path d="M160.08 213.98L183.305 194.796L176.932 193.107L152.567 209.541C154.645 210.984 157.171 212.471 160.08 213.98Z" fill="#B6685A"/>
<path d="M245.548 235.408L233.964 208.22L218.764 204.193L221.709 233.243C230.976 234.795 239.168 235.523 245.548 235.408Z" fill="#B6685A"/>
<path d="M247.146 211.141C248.448 206.225 231.448 197.455 209.174 191.554C186.9 185.652 167.788 184.854 166.486 189.77C165.183 194.686 182.183 203.456 204.457 209.357C226.731 215.259 245.843 216.057 247.146 211.141Z" fill="#E47979"/>
<path d="M248.67 205.39C249.973 200.474 232.972 191.705 210.699 185.803C188.425 179.902 169.313 179.103 168.01 184.02C166.708 188.936 183.708 197.705 205.982 203.607C228.255 209.508 247.367 210.307 248.67 205.39Z" fill="#E47979"/>
<path d="M250.195 199.632C251.497 194.716 234.497 185.946 212.223 180.045C189.95 174.144 170.837 173.345 169.535 178.261C168.232 183.178 185.233 191.947 207.506 197.849C229.78 203.75 248.892 204.549 250.195 199.632Z" fill="#C36B68"/>
<path d="M251.718 193.881C253.021 188.965 236.02 180.196 213.747 174.294C191.473 168.393 172.361 167.594 171.058 172.511C169.756 177.427 186.756 186.196 209.03 192.098C231.303 197.999 250.416 198.798 251.718 193.881Z" fill="#E47979"/>
<path d="M253.243 188.131C254.545 183.215 237.545 174.445 215.271 168.544C192.998 162.642 173.885 161.844 172.583 166.76C171.28 171.676 188.281 180.446 210.554 186.347C232.828 192.249 251.94 193.047 253.243 188.131Z" fill="#E69494"/>
<path d="M254.766 182.38C256.068 177.464 239.068 168.694 216.794 162.793C194.521 156.891 175.409 156.093 174.106 161.009C172.803 165.925 189.804 174.695 212.077 180.596C234.351 186.498 253.463 187.296 254.766 182.38Z" fill="#E47979"/>
<path d="M256.289 176.629C257.592 171.713 240.591 162.943 218.318 157.042C196.044 151.14 176.932 150.342 175.629 155.258C174.326 160.174 191.327 168.944 213.6 174.845C235.874 180.747 254.986 181.545 256.289 176.629Z" fill="#C36B68"/>
<path d="M257.814 170.879C259.116 165.962 242.116 157.193 219.842 151.291C197.568 145.39 178.456 144.591 177.154 149.508C175.851 154.424 192.851 163.194 215.125 169.095C237.399 174.996 256.511 175.795 257.814 170.879Z" fill="#E47979"/>
<path d="M259.337 165.128C260.639 160.211 243.639 151.442 221.365 145.54C199.092 139.639 179.979 138.84 178.677 143.757C177.374 148.673 194.375 157.443 216.648 163.344C238.922 169.245 258.034 170.044 259.337 165.128Z" fill="#E47979"/>
<path d="M260.861 159.369C262.164 154.453 245.164 145.684 222.89 139.782C200.616 133.881 181.504 133.082 180.202 137.999C178.899 142.915 195.899 151.684 218.173 157.586C240.447 163.487 259.559 164.286 260.861 159.369Z" fill="#E47979"/>
<path d="M262.386 153.619C263.689 148.703 246.688 139.933 224.415 134.032C202.141 128.131 183.029 127.332 181.726 132.248C180.424 137.165 197.424 145.934 219.698 151.836C241.971 157.737 261.083 158.535 262.386 153.619Z" fill="#C36B68"/>
<path d="M263.909 147.868C265.212 142.952 248.211 134.182 225.938 128.281C203.664 122.38 184.552 121.581 183.249 126.497C181.947 131.414 198.947 140.183 221.221 146.085C243.494 151.986 262.607 152.784 263.909 147.868Z" fill="#E47979"/>
<path d="M265.432 142.117C266.735 137.201 249.735 128.431 227.461 122.53C205.187 116.629 186.075 115.83 184.773 120.746C183.47 125.663 200.47 134.432 222.744 140.333C245.018 146.235 264.13 147.033 265.432 142.117Z" fill="#E47979"/>
<path d="M283.476 133.542C283.454 133.55 283.439 133.557 283.424 133.564C283.439 133.564 283.461 133.557 283.476 133.542Z" fill="#774747"/>
<path d="M173.352 104.37C173.367 104.385 173.375 104.399 173.389 104.414C173.375 104.399 173.367 104.385 173.352 104.37Z" fill="#774747"/>
<path d="M173.612 104.731C177.899 110.627 186.041 117.91 188.379 119.959C188.574 120.14 188.783 120.32 189 120.501C189.014 120.515 189.029 120.522 189.029 120.522C194.716 125.242 208.039 130.987 224.098 135.246C240.164 139.504 254.577 141.099 261.859 139.821C261.859 139.821 261.873 139.821 261.895 139.814C262.176 139.764 262.444 139.713 262.696 139.655C265.742 139.035 276.416 136.732 283.063 133.737C275.088 137.31 252.043 135.39 225.895 128.461C199.746 121.525 178.773 111.789 173.612 104.731Z" fill="#9E5947"/>
<path d="M233.055 101.447C201.717 93.1468 177.799 80.8051 179.632 73.8837L172.472 100.891C172.198 101.938 172.515 103.107 173.353 104.37C173.36 104.384 173.367 104.399 173.381 104.413C173.454 104.514 173.533 104.622 173.612 104.731C178.773 111.789 199.746 121.525 225.895 128.454C252.051 135.383 275.088 137.303 283.064 133.73C283.179 133.679 283.302 133.622 283.417 133.571C283.432 133.564 283.446 133.557 283.468 133.542C284.817 132.864 285.676 132.005 285.95 130.959L293.11 103.951C291.277 110.865 264.392 109.747 233.055 101.447Z" fill="#774747"/>
<path d="M293.098 104.001C294.931 97.0813 271.015 84.7413 239.679 76.439C208.344 68.1366 181.455 67.0158 179.621 73.9356C177.788 80.8554 201.704 93.1955 233.04 101.498C264.375 109.8 291.264 110.921 293.098 104.001Z" fill="#9E5947"/>
<path d="M173.353 104.37C173.367 104.385 173.375 104.399 173.389 104.414C173.375 104.399 173.367 104.385 173.353 104.37Z" fill="white"/>
<path d="M274.814 135.368V135.361C267.907 135.809 258.265 135.051 247.15 133.131C247.15 133.131 243.859 135.628 239.442 138.609C248.998 140.247 257.009 140.673 261.859 139.814C261.859 139.814 261.873 139.814 261.895 139.807C262.177 139.756 262.444 139.706 262.696 139.648C263.519 139.482 264.919 139.186 266.637 138.789C270.354 137.483 273.703 136.177 274.814 135.368Z" fill="#774747"/>
<path d="M254.31 106.124L247.15 133.131C258.265 135.051 267.907 135.809 274.814 135.361L281.967 108.361H281.959C275.052 108.801 265.41 108.036 254.31 106.124Z" fill="#53363E"/>
<path d="M254.302 106.116C265.41 108.036 275.052 108.801 281.959 108.354L236.375 88.9102L254.302 106.116Z" fill="#B6685A"/>
<path d="M23.3905 7.25301C19.4281 4.42381 13.8779 5.73015 11.59 10.0245L-6.12129 43.3181L-6.17187 43.282L-92.0944 163.646L-107.366 187.788C-108.398 189.419 -106.089 191.072 -104.876 189.563L-86.999 167.276L-1.07637 46.9124L-1.12695 46.8763L24.6102 19.306C27.9229 15.755 27.3528 10.0822 23.3905 7.25301ZM21.0736 16.0221L4.31497 33.9716L15.8483 12.2907C16.4473 11.1648 17.4289 10.7823 17.963 10.6596C18.4971 10.5369 19.5436 10.4359 20.5829 11.1793C21.6222 11.9226 21.8676 12.9475 21.9253 13.4888C21.9831 14.0373 21.9469 15.0911 21.0736 16.0221Z" fill="#7B7BAB"/>
<path d="M294.243 173.115C288.354 159.857 279.816 147.984 269.372 138.118L265.121 139.129C275.659 148.692 284.334 160.311 290.375 173.317C296.206 185.868 300.291 200.49 298.054 214.391C295.593 229.706 284.363 239.536 269.213 241.492C240.12 245.245 213.9 224.308 184.547 231.662C172.818 234.6 161.877 241.066 153.779 250.059C145.241 259.543 140.759 271.56 134.761 282.631C128.186 294.764 119.172 304.716 105.004 307.235C90.6417 309.783 75.3842 304.796 63.2663 297.246C39.016 282.148 21.8387 255.249 23.0079 226.191C24.2348 195.72 41.6936 168.821 53.1042 141.402C64.1468 114.857 70.6569 84.1034 58.9142 56.6486C50.1163 36.0792 32.7513 22.4961 11.922 19.703L10.1177 23.1024C35.927 25.9893 55.1829 46.6454 60.2062 73.1619C66.6224 107.011 50.5348 138.854 36.7641 168.619C24.8338 194.399 13.7985 222.85 22.6253 251.366C30.1386 275.623 49.8348 296.857 73.3273 306.42C84.5719 311.003 97.4405 313.161 109.356 309.985C120.803 306.932 129.24 298.914 135.303 289.004C142.455 277.319 146.648 263.801 155.735 253.329C165.81 241.723 180.714 234.362 196.08 233.553C224.661 232.052 252.368 253.949 280.891 242.214C308.894 230.681 304.218 195.575 294.243 173.115Z" fill="#C36B68"/>
<path d="M130.482 138.234C137.064 120.76 152.451 105.654 166.114 89.5236C168.214 87.4162 170.134 85.0705 171.837 82.53C171.837 82.53 171.837 82.53 171.844 82.5228C173.555 79.9679 175.063 77.2181 176.312 74.3022C180.519 64.4866 181.458 53.8916 178.96 44.4585C176.593 35.5378 171.447 28.5659 164.309 24.5314C163.393 24.0117 162.44 23.5354 161.458 23.1168C152.841 19.4215 143.069 20.1504 133.931 25.1593C125.379 29.8506 118.356 37.8402 114.149 47.6558C109.941 57.4714 109.696 67.9149 111.5 77.4995C112.676 83.7497 116.321 88.6648 120.139 92.259C126.281 98.0329 128.749 106.708 126.252 114.763L120.587 132.994L38.3304 325.019C38.3304 325.019 92.1718 294.157 120.298 229.793C148.409 165.429 122.954 158.211 130.482 138.234ZM149.543 84.089C144.404 86.911 139.128 87.4162 134.696 85.518C134.235 85.3159 133.78 85.0922 133.34 84.8468C129.601 82.7321 126.844 78.8564 125.494 73.7826C123.82 67.4746 124.513 60.2212 127.45 53.3719C130.388 46.5226 135.158 41.0158 140.882 37.8763C146.02 35.0543 151.296 34.5491 155.728 36.4472C160.152 38.3454 163.422 42.5098 164.93 48.1826C166.604 54.4906 165.911 61.744 162.974 68.5933C160.037 75.4426 155.266 80.9494 149.543 84.089Z" fill="#7C7DAC"/>
<path d="M137.324 116.163C133.08 119.396 128.453 122.42 123.394 123.914L120.572 132.994L112.315 152.264C117.808 148.821 123.466 145.646 129.276 142.759C129.5 141.308 129.89 139.807 130.482 138.234C134.826 126.715 142.996 116.228 151.968 105.792C146.677 108.541 142.087 112.533 137.324 116.163Z" fill="#535177"/>
<path d="M31.1274 143.618C-32.2482 173.909 -61.2619 228.768 -61.2619 228.768L127.862 140.045L145.891 133.766C153.851 130.995 162.606 133.167 168.589 139.107C172.313 142.802 177.351 146.274 183.63 147.241C193.272 148.728 203.702 148.121 213.366 143.582C223.03 139.042 230.781 131.752 235.176 123.041C239.875 113.738 240.272 103.944 236.288 95.4563C235.833 94.4892 235.328 93.5509 234.779 92.6488C230.5 85.6551 223.362 80.7473 214.362 78.6832C204.856 76.5035 194.29 77.8027 184.626 82.3424C181.754 83.692 179.062 85.2871 176.564 87.0842C176.564 87.0842 176.564 87.0842 176.557 87.0914C174.074 88.8813 171.801 90.8805 169.758 93.0457C154.097 107.242 139.525 123.135 122.283 130.309C102.579 138.515 94.503 113.326 31.1274 143.618ZM190.79 95.478C197.538 92.3095 204.763 91.3713 211.128 92.8292C216.844 94.1355 221.117 97.2679 223.167 101.627C225.216 105.994 224.884 111.277 222.243 116.509C219.298 122.334 213.957 127.292 207.209 130.46C200.461 133.629 193.236 134.567 186.878 133.109C181.761 131.94 177.798 129.313 175.561 125.646C175.294 125.213 175.056 124.773 174.839 124.311C172.79 119.945 173.122 114.662 175.763 109.429C178.708 103.605 184.041 98.6464 190.79 95.478Z" fill="#7C7DAC"/>
<path d="M125.177 132.741C126.49 132.525 127.732 133.412 127.948 134.719C128.165 136.032 127.277 137.274 125.971 137.49C124.657 137.707 123.416 136.819 123.199 135.513C122.975 134.206 123.863 132.965 125.177 132.741Z" fill="#D4CFC7"/>
<path d="M62.2487 269.156L60.7907 308.599C64.9479 305.092 69.466 301.014 74.1573 296.359L76.3874 236.151L62.2487 269.156Z" fill="#A8A6D1"/>
<path d="M99.6345 266.305L103.056 173.894L98.2705 185.074L95.0299 272.599C96.5745 270.556 98.1117 268.463 99.6345 266.305Z" fill="#A8A6D1"/>
<path d="M-4.80779 165.609L-6.18633 202.937L11.258 194.753L12.7809 153.599C6.49459 157.432 0.634098 161.473 -4.80779 165.609Z" fill="#A8A6D1"/>
<path d="M36.2013 141.265L34.6279 183.79L68.3979 167.947L69.8052 129.825C60.8341 131.601 49.8854 135.072 36.2013 141.265Z" fill="#A8A6D1"/>
<path d="M126.995 33.2861C126.173 34.2099 125.372 35.2276 125.148 36.4473C124.931 37.667 125.494 39.1033 126.671 39.4858C127.869 39.8683 129.089 39.0744 130.092 38.3238C132.127 36.8009 145.068 29.1289 141.647 26.2853C137.324 22.6838 129.435 30.5724 126.995 33.2861Z" fill="#A8A6D1"/>
<path d="M145.905 23.7086C145.414 24.3293 145.313 25.2964 145.811 25.9171C146.36 26.5955 147.363 26.6533 148.243 26.6533C148.893 26.6533 149.55 26.6533 150.163 26.4656C151.7 26.0037 152.487 23.7735 150.777 22.9508C149.449 22.3012 146.865 22.4961 145.905 23.7086Z" fill="#A8A6D1"/>
<path d="M191.418 82.1836C190.732 82.6239 190.061 83.1291 189.649 83.8364C189.238 84.5365 189.122 85.4675 189.548 86.1604C190.263 87.3079 191.923 87.2574 193.265 87.0625C195.827 86.6872 198.382 86.3192 200.945 85.9439C202.742 85.684 205.03 85.251 205.528 83.1868C206.011 81.1948 204.488 80.5164 202.828 80.1628C198.967 79.3183 194.745 80.0689 191.418 82.1836Z" fill="#A8A6D1"/>
<path d="M208.429 82.8332C208.436 82.9414 208.458 83.0497 208.479 83.1507C208.653 83.8292 209.216 84.3993 209.865 84.6952C212.103 85.7129 213.835 84.2766 212.832 81.9743C211.886 79.7875 208.234 80.2421 208.429 82.8332Z" fill="#A8A6D1"/>
</g>
</svg>
