<svg width="107" height="69" viewBox="0 0 107 69" fill="none" style='filter: invert(98%) sepia(9%) saturate(15%) hue-rotate(77deg) brightness(109%) contrast(99%);' xmlns="http://www.w3.org/2000/svg">
<path d="M9.33313 9.29643C8.77109 8.95373 8.22277 8.78237 7.68816 8.78237C6.82455 8.78237 5.87869 8.91946 4.85059 9.19362L3.74024 9.46092C3.41124 9.54317 3.15764 9.5843 2.97944 9.5843C2.5682 9.5843 2.36258 9.43351 2.36258 9.13193C2.36258 8.95373 2.51336 8.7344 2.81494 8.47394C3.10281 8.19978 3.49349 7.93933 3.98698 7.69258C5.207 7.08943 6.52983 6.78785 7.95546 6.78785C9.99797 6.78785 11.3071 7.13741 11.8828 7.83652C12.0473 8.02843 12.1296 8.29574 12.1296 8.63844C12.1022 9.96812 11.4853 13.5048 10.279 19.2485C11.8965 18.5905 12.8835 18.049 13.2399 17.6241C13.61 17.1991 13.8979 16.9867 14.1035 16.9867C14.3092 16.9867 14.412 17.1991 14.412 17.6241C14.412 18.049 14.2817 18.4191 14.0213 18.7344C13.7745 19.0497 13.377 19.4061 12.8287 19.8037C12.2941 20.2012 11.3071 20.7084 9.86774 21.3253C9.75808 21.8736 9.55245 22.4836 9.25088 23.1553C8.22277 25.9928 6.54353 27.4116 4.21316 27.4116C3.07539 27.4116 2.10898 27.1649 1.31391 26.6714C0.518841 26.1779 0.121307 25.4171 0.121307 24.389C0.121307 24.0189 0.31322 23.6693 0.697045 23.3403C1.06716 23.0113 1.61549 22.6618 2.34201 22.2917C3.05483 21.9353 4.45305 21.3869 6.53668 20.6467C6.61893 20.1669 6.68747 19.7214 6.7423 19.3102C6.79713 18.8852 6.85882 18.522 6.92736 18.2204C7.21523 16.2601 7.78411 13.9503 8.63401 11.2909C8.88076 10.537 9.1138 9.87217 9.33313 9.29643ZM2.8355 25.4788C3.24675 25.6981 3.63742 25.8078 4.00754 25.8078C4.37766 25.8215 4.65868 25.7392 4.85059 25.561C5.0425 25.3965 5.24812 25.1224 5.46745 24.7386C5.70049 24.3547 5.92667 23.683 6.146 22.7235C5.43318 22.9702 4.82317 23.1758 4.31597 23.3403C3.82248 23.5048 3.4181 23.6556 3.10281 23.7927C2.80123 23.9298 2.5819 24.06 2.44482 24.1834C2.29403 24.3068 2.21864 24.4575 2.21864 24.6357C2.21864 24.9785 2.42426 25.2595 2.8355 25.4788ZM25.9006 16.925C26.1473 16.925 26.2707 17.2402 26.2707 17.8708C26.2707 18.2135 26.1267 18.6316 25.8389 19.1251C25.551 19.6049 25.174 20.0504 24.7079 20.4616C24.2556 20.8592 23.7484 21.1882 23.1864 21.4486C22.6243 21.7091 22.076 21.8393 21.5414 21.8393C20.8149 21.8393 20.3282 21.2019 20.0815 19.927C19.7251 20.5165 19.259 21.0031 18.6833 21.3869C18.1075 21.7571 17.333 21.9421 16.3597 21.9421C15.4002 21.9421 14.6257 21.6405 14.0362 21.0374C13.4468 20.4342 13.1589 19.7008 13.1726 18.8372C13.1726 16.5069 13.9471 14.67 15.4961 13.3266C16.1541 12.7646 16.7641 12.3944 17.3262 12.2162C17.9019 12.038 18.5051 11.9489 19.1356 11.9489C19.7662 11.9489 20.2802 12.0586 20.6778 12.2779C20.8697 11.8804 21.089 11.6816 21.3358 11.6816C21.8155 11.6816 22.2679 11.8941 22.6929 12.3191C23.1315 12.7303 23.3509 13.121 23.3509 13.4911C23.1589 13.9435 22.8779 14.4849 22.5078 15.1155C22.3981 15.7461 22.3433 16.6302 22.3433 17.768C22.3433 18.9058 22.4872 19.4747 22.7751 19.4747C23.1315 19.4747 23.9951 18.7618 25.3659 17.3362C25.6127 17.062 25.7909 16.925 25.9006 16.925ZM16.1952 18.1587C16.1952 19.2142 16.5859 19.742 17.3673 19.742C18.2035 19.7283 18.8957 19.2828 19.4441 18.4054C19.636 18.1039 19.7936 17.7337 19.917 17.2951C19.917 15.7598 20.0541 14.4438 20.3282 13.3472C19.2179 13.5665 18.2515 14.1011 17.429 14.951C16.6065 15.8009 16.1952 16.8701 16.1952 18.1587ZM32.0904 14.8688C32.0904 14.3753 31.7957 14.1285 31.2062 14.1285C30.6305 14.1285 30.0616 14.5809 29.4996 15.4856C28.9375 16.3766 28.588 17.2882 28.4509 18.2204C28.4783 18.5357 28.5057 18.8509 28.5331 19.1662C28.5606 19.4815 28.5743 19.7899 28.5743 20.0915C28.5743 20.8181 28.3344 21.3115 27.8546 21.572C27.6353 21.6954 27.4228 21.8119 27.2172 21.9216C27.0253 22.0312 26.7991 22.086 26.5386 22.086C26.2782 22.086 26.0451 21.9147 25.8395 21.572C25.6476 21.2156 25.5516 20.6673 25.5516 19.927C25.5516 17.8571 25.7024 16.0614 26.004 14.5398C26.4701 12.182 27.3954 9.65969 28.7799 6.97291C28.9718 6.60279 29.2528 6.42459 29.6229 6.4383C29.993 6.4383 30.2946 6.69189 30.5277 7.19909C30.7607 7.70629 30.8704 8.13124 30.8567 8.47394C30.8567 8.81664 30.8018 9.15249 30.6922 9.48149C30.5962 9.79677 30.466 10.1121 30.3015 10.4273C30.1507 10.7289 29.9725 11.0442 29.7669 11.3732C29.575 11.6885 29.383 12.0312 29.1911 12.4013L28.8827 13.8818C29.4173 12.9907 30.137 12.3944 31.0417 12.0929C31.3707 11.9832 31.734 11.9284 32.1315 11.9284C33.0637 11.9284 33.7696 12.1408 34.2494 12.5658C34.7292 12.977 34.9691 13.5665 34.9691 14.3341C34.9691 15.0881 34.8663 15.8557 34.6606 16.6371C34.4687 17.4185 34.3248 17.9805 34.2288 18.3232C34.1466 18.6522 34.1055 18.9263 34.1055 19.1457C34.1055 19.365 34.1809 19.4747 34.3317 19.4747C34.5373 19.4747 34.7909 19.3444 35.0924 19.084C35.394 18.8235 35.6956 18.5425 35.9972 18.2409C36.2988 17.9257 36.5729 17.6378 36.8197 17.3773C37.0801 17.1169 37.2583 16.9867 37.3543 16.9867C37.5462 16.9867 37.6421 17.2197 37.6421 17.6858C37.6421 18.6453 37.1692 19.5706 36.2234 20.4616C34.6332 21.3938 33.6188 21.8599 33.1802 21.8599C33.139 21.8599 33.1116 21.853 33.0979 21.8393C32.0013 21.8393 31.453 20.962 31.453 19.2074C31.453 18.4534 31.5215 17.7612 31.6586 17.1306C31.8094 16.5 31.919 16.0408 31.9876 15.7529C32.0561 15.4651 32.0904 15.1703 32.0904 14.8688ZM39.076 21.8393C37.7052 21.8393 37.0198 20.5576 37.0198 17.9942C37.0198 16.596 37.1912 15.328 37.5339 14.1902C38.0685 12.4356 38.6716 11.5583 39.3433 11.5583C39.7409 11.5583 40.0562 11.8256 40.2892 12.3602C40.4811 12.7714 40.5702 13.1758 40.5565 13.5733C40.5565 14.1217 40.392 15.0881 40.063 16.4726C39.7477 17.6789 39.5901 18.426 39.5901 18.7139C39.5901 19.0017 39.6586 19.2005 39.7957 19.3102C39.9465 19.4198 40.1178 19.4747 40.3098 19.4747C40.5154 19.4747 40.769 19.3444 41.0706 19.084C41.3721 18.8235 41.6737 18.5425 41.9753 18.2409C42.2769 17.9257 42.551 17.6378 42.7978 17.3773C43.0582 17.1169 43.2364 16.9867 43.3324 16.9867C43.5243 16.9867 43.6203 17.2197 43.6203 17.6858C43.6203 18.6453 43.1336 19.5843 42.1603 20.5028C41.2008 21.4075 40.1727 21.853 39.076 21.8393ZM39.9191 9.89273C39.549 9.34441 39.3639 8.75496 39.3639 8.12439C39.3639 7.49382 39.4599 6.97291 39.6518 6.56167C39.8574 6.13672 40.0493 5.82829 40.2275 5.63637C40.4057 5.43075 40.6113 5.32794 40.8444 5.32794C41.2282 5.32794 41.5778 5.61581 41.893 6.19155C42.2083 6.75358 42.366 7.22651 42.366 7.61034C42.366 8.32315 42.1124 8.88518 41.6052 9.29643C41.1117 9.69396 40.5496 9.89273 39.9191 9.89273ZM43.4972 20.6673C43.3464 20.2971 43.2368 19.8722 43.1682 19.3924C43.0997 18.8989 43.0654 18.2135 43.0654 17.3362C43.0654 16.4589 43.2299 15.2731 43.5589 13.779H42.6336C42.4691 13.779 42.3869 13.7104 42.3869 13.5733C42.3869 13.2443 42.4143 12.977 42.4691 12.7714C42.5376 12.5521 42.6884 12.3053 42.9215 12.0312H43.415C43.6069 12.0312 43.8125 12.0243 44.0318 12.0106C44.6898 9.89958 45.3615 8.84406 46.0469 8.84406C46.5952 8.85777 46.9791 9.20732 47.1984 9.89273C47.2532 10.0846 47.3149 10.2903 47.3834 10.5096L46.5404 11.9901C47.5 12.0175 48.1031 12.0312 48.3499 12.0312C48.6103 12.0312 48.7474 12.0586 48.7611 12.1134C48.7885 12.1546 48.8022 12.2231 48.8022 12.3191C48.8022 12.5658 48.7405 12.8742 48.6172 13.2443C48.5075 13.6145 48.3773 13.7927 48.2265 13.779L46.1703 13.6762C45.8824 15.3485 45.7385 16.7331 45.7385 17.8297C45.7385 18.9263 45.8961 19.4747 46.2114 19.4747C46.4719 19.4747 46.9448 19.2622 47.6302 18.8372C48.3156 18.3986 48.8091 17.9805 49.1107 17.583C49.4122 17.1854 49.659 16.9867 49.8509 16.9867C50.0428 16.9867 50.1388 17.2197 50.1388 17.6858C50.1388 18.1518 49.9743 18.6316 49.6453 19.1251C49.3163 19.6049 48.8982 20.0504 48.391 20.4616C47.8975 20.8592 47.3423 21.1882 46.7255 21.4486C46.1223 21.7091 45.5945 21.8393 45.1422 21.8393C44.6898 21.8393 44.3402 21.7365 44.0935 21.5309C43.8605 21.3115 43.6617 21.0237 43.4972 20.6673ZM55.1227 17.2745C55.4928 18.7413 56.1165 19.4747 56.9938 19.4747C57.4188 19.4747 57.8026 19.3444 58.1453 19.084C58.488 18.8235 58.7964 18.5425 59.0706 18.2409C59.3447 17.9257 59.5846 17.6378 59.7903 17.3773C59.9959 17.1169 60.1878 16.9867 60.366 16.9867C60.5442 16.9867 60.6333 17.2197 60.6333 17.6858C60.6333 18.659 60.1809 19.598 59.2762 20.5028C58.3715 21.4075 57.3571 21.853 56.233 21.8393C55.1227 21.8393 54.1288 20.8592 53.2515 18.8989C53.0048 18.3506 52.7717 17.7954 52.5524 17.2334L52.4085 20.0504C52.4085 20.3109 52.3948 20.5713 52.3673 20.8318C52.3399 21.0785 52.2234 21.2841 52.0178 21.4486C51.4832 21.8736 50.9417 22.086 50.3934 22.086C49.7491 22.086 49.427 21.4212 49.427 20.0915C49.427 18.1724 49.6531 16.1642 50.1055 14.0668C50.5579 11.9695 50.9965 10.3931 51.4215 9.33755C51.8601 8.26832 52.196 7.5555 52.429 7.19909C52.6758 6.84268 52.8677 6.62335 53.0048 6.54111C53.1418 6.45886 53.2926 6.41773 53.4571 6.41773C53.6353 6.41773 53.8204 6.50684 54.0123 6.68504C54.2042 6.84954 54.4098 7.10999 54.6292 7.4664C54.8485 7.8091 54.9582 8.1518 54.9582 8.49451C54.9719 8.8235 54.917 9.15249 54.7937 9.48149C54.684 9.79677 54.5332 10.1121 54.3413 10.4273C54.1494 10.7289 53.9369 11.0442 53.7039 11.3732C53.4708 11.6885 53.2378 12.0312 53.0048 12.4013L52.7991 14.1285C53.2789 13.1278 53.9849 12.4561 54.917 12.1134C55.246 11.9901 55.6299 11.9284 56.0685 11.9284C56.9458 11.9284 57.6175 12.1408 58.0836 12.5658C58.5497 12.977 58.7827 13.5871 58.7827 14.3958C58.7827 15.2046 58.3783 15.89 57.5695 16.452C56.7608 17.0141 55.9451 17.2882 55.1227 17.2745ZM55.904 14.8688C55.904 14.3753 55.623 14.1285 55.061 14.1285C54.4989 14.1285 53.8889 14.67 53.2309 15.7529C53.039 16.0682 52.8745 16.3903 52.7375 16.7193C54.1631 16.6371 55.1364 16.2533 55.6573 15.5679C55.8218 15.3485 55.904 15.1155 55.904 14.8688ZM64.3913 19.5364C65.4606 19.5364 66.4955 19.1114 67.4962 18.2615C67.8663 17.9462 68.1679 17.6583 68.401 17.3979C68.634 17.1237 68.8122 16.9867 68.9356 16.9867C69.1275 16.9867 69.2234 17.1786 69.2234 17.5624C69.2234 17.9462 69.1206 18.378 68.915 18.8578C68.7094 19.3239 68.3667 19.7831 67.8869 20.2355C66.708 21.3458 65.0905 21.901 63.0342 21.901C61.403 21.901 60.2926 21.3115 59.7032 20.1327C59.4976 19.7214 59.3948 19.132 59.3948 18.3643C59.3948 17.5967 59.5455 16.8016 59.8471 15.9791C60.1487 15.1429 60.5462 14.4232 61.0397 13.8201C61.5469 13.2169 62.1295 12.7509 62.7875 12.4219C63.4455 12.0792 64.1446 11.9078 64.8848 11.9078C65.6388 11.9078 66.2145 12.0929 66.6121 12.463C67.0233 12.8331 67.2289 13.3129 67.2289 13.9023C67.2289 14.4918 67.0781 14.9784 66.7765 15.3622C66.4887 15.7324 66.1117 16.0476 65.6456 16.3081C65.1796 16.5548 64.6587 16.781 64.0829 16.9867C63.5209 17.1786 62.9657 17.3979 62.4174 17.6446V18.1587C62.4311 18.6522 62.6367 19.0017 63.0342 19.2074C63.4318 19.413 63.8841 19.5226 64.3913 19.5364ZM64.0418 13.7378C63.329 13.7378 62.8355 14.5672 62.5613 16.2259C62.8492 16.0339 63.1165 15.8626 63.3632 15.7118C63.6237 15.561 63.8499 15.4171 64.0418 15.28C64.453 14.9784 64.6655 14.6357 64.6792 14.2519C64.6792 13.9092 64.4667 13.7378 64.0418 13.7378ZM72.9857 19.5364C74.0549 19.5364 75.0898 19.1114 76.0905 18.2615C76.4607 17.9462 76.7622 17.6583 76.9953 17.3979C77.2283 17.1237 77.4065 16.9867 77.5299 16.9867C77.7218 16.9867 77.8178 17.1786 77.8178 17.5624C77.8178 17.9462 77.7149 18.378 77.5093 18.8578C77.3037 19.3239 76.961 19.7831 76.4812 20.2355C75.3023 21.3458 73.6848 21.901 71.6286 21.901C69.9973 21.901 68.8869 21.3115 68.2975 20.1327C68.0919 19.7214 67.9891 19.132 67.9891 18.3643C67.9891 17.5967 68.1399 16.8016 68.4414 15.9791C68.743 15.1429 69.1405 14.4232 69.634 13.8201C70.1412 13.2169 70.7238 12.7509 71.3818 12.4219C72.0398 12.0792 72.7389 11.9078 73.4791 11.9078C74.2331 11.9078 74.8088 12.0929 75.2064 12.463C75.6176 12.8331 75.8232 13.3129 75.8232 13.9023C75.8232 14.4918 75.6724 14.9784 75.3709 15.3622C75.083 15.7324 74.706 16.0476 74.2399 16.3081C73.7739 16.5548 73.253 16.781 72.6772 16.9867C72.1152 17.1786 71.56 17.3979 71.0117 17.6446V18.1587C71.0254 18.6522 71.231 19.0017 71.6286 19.2074C72.0261 19.413 72.4785 19.5226 72.9857 19.5364ZM72.6361 13.7378C71.9233 13.7378 71.4298 14.5672 71.1556 16.2259C71.4435 16.0339 71.7108 15.8626 71.9576 15.7118C72.218 15.561 72.4442 15.4171 72.6361 15.28C73.0473 14.9784 73.2598 14.6357 73.2735 14.2519C73.2735 13.9092 73.0611 13.7378 72.6361 13.7378ZM83.1838 13.1004C83.1838 12.182 83.8966 11.7228 85.3223 11.7228C85.6787 11.7228 85.898 11.8393 85.9803 12.0723C86.0762 12.3053 86.1242 12.6618 86.1242 13.1415C86.1242 13.8132 85.9734 14.855 85.6718 16.267C85.3703 17.6789 85.2263 18.6316 85.24 19.1251C85.24 19.3581 85.3154 19.4747 85.4662 19.4747C85.6718 19.4747 85.9254 19.3444 86.227 19.084C86.5286 18.8235 86.8302 18.5425 87.1317 18.2409C87.4333 17.9257 87.7075 17.6378 87.9542 17.3773C88.2147 17.1169 88.3929 16.9867 88.4888 16.9867C88.6807 16.9867 88.7767 17.2197 88.7767 17.6858C88.7767 18.6453 88.3038 19.5706 87.3579 20.4616C85.7678 21.3938 84.7602 21.8599 84.3353 21.8599C84.2942 21.8599 84.2599 21.853 84.2325 21.8393C83.7116 21.8393 83.3415 21.668 83.1221 21.3253C82.9165 20.9826 82.7863 20.5507 82.7315 20.0298C82.4573 20.537 82.0803 20.9757 81.6005 21.3458C81.1208 21.7022 80.5724 21.8804 79.9556 21.8804C78.8726 21.8804 78.0364 21.6748 77.447 21.2636C76.8713 20.8523 76.5834 20.2423 76.5834 19.4335C76.5834 19.0771 76.6314 18.7481 76.7273 18.4466C76.837 18.145 77.0083 17.7749 77.2414 17.3362L77.8377 12.2779C78.2626 11.9489 78.8726 11.7844 79.6677 11.7844C80.2983 11.7844 80.6547 12.1957 80.7369 13.0182C80.8055 13.6899 80.7712 14.293 80.6341 14.8276C80.5107 15.3485 80.3394 16.0134 80.1201 16.8222C79.9007 17.6172 79.7911 18.3232 79.7911 18.94C79.7911 19.4335 80.0995 19.6803 80.7164 19.6803C81.3881 19.6803 81.9707 19.0908 82.4641 17.9119C82.848 17.0072 83.1084 15.9997 83.2455 14.8893C83.2318 14.7797 83.2181 14.6426 83.2044 14.4781C83.2044 14.2999 83.1975 14.1285 83.1838 13.964C83.1838 13.7995 83.1838 13.635 83.1838 13.4705V13.1004ZM90.4875 11.5171C90.981 11.5171 91.4471 11.9901 91.8858 12.9359C92.53 12.2642 93.3251 11.9284 94.271 11.9284C95.2305 11.9284 95.9502 12.1408 96.43 12.5658C96.9098 12.977 97.1497 13.5665 97.1497 14.3341C97.1497 15.0881 97.0468 15.8557 96.8412 16.6371C96.6493 17.4185 96.5054 17.9805 96.4094 18.3232C96.3272 18.6522 96.286 18.9263 96.286 19.1457C96.286 19.365 96.3614 19.4747 96.5122 19.4747C96.7178 19.4747 96.9714 19.3444 97.273 19.084C97.5746 18.8235 97.8762 18.5425 98.1778 18.2409C98.4793 17.9257 98.7535 17.6378 99.0002 17.3773C99.2607 17.1169 99.4389 16.9867 99.5349 16.9867C99.7268 16.9867 99.8227 17.2197 99.8227 17.6858C99.8227 18.6453 99.3498 19.5706 98.4039 20.4616C96.8138 21.3938 95.7994 21.8599 95.3607 21.8599C95.3196 21.8599 95.2922 21.853 95.2785 21.8393C94.1819 21.8393 93.6335 20.962 93.6335 19.2074C93.6335 18.4534 93.7021 17.7612 93.8392 17.1306C93.9899 16.5 94.0996 16.0408 94.1681 15.7529C94.2367 15.4651 94.271 15.1703 94.271 14.8688C94.271 14.3753 93.9831 14.1285 93.4073 14.1285C92.8453 14.1285 92.3038 14.5535 91.7829 15.4034C91.2757 16.2396 90.933 17.11 90.7548 18.0148V18.1587C90.7548 18.6248 90.8234 19.1045 90.9605 19.598C91.1112 20.0915 91.1866 20.4342 91.1866 20.6261C91.1866 21.0922 90.6041 21.5514 89.4389 22.0038C89.2607 22.0723 89.103 22.1066 88.9659 22.1066C88.6232 22.1066 88.3833 21.9284 88.2463 21.572C88.1229 21.2156 88.0612 20.6604 88.0612 19.9065C88.0612 17.9599 88.1366 16.5548 88.2874 15.6912C88.493 14.4027 88.9591 13.2032 89.6856 12.0929C89.9324 11.709 90.1997 11.5171 90.4875 11.5171Z" fill="#402E32"/>
<path d="M11.8302 40.2651C11.7118 40.2651 11.6171 40.2178 11.5461 40.123C11.4829 40.0283 11.4593 39.9139 11.4751 39.7797L12.7655 32.2858C12.7892 32.1911 12.8326 32.1161 12.8957 32.0608C12.9588 32.0056 13.0338 31.978 13.1206 31.978C13.2469 31.978 13.3416 32.0253 13.4048 32.12C13.4758 32.2068 13.4995 32.3173 13.4758 32.4515L12.1854 39.9573C12.1775 40.052 12.138 40.127 12.067 40.1822C12.0038 40.2375 11.9249 40.2651 11.8302 40.2651ZM11.2738 34.7956C11.1633 34.7956 11.0686 34.7601 10.9897 34.689C10.9186 34.6101 10.8831 34.5154 10.8831 34.4049C10.8831 34.3023 10.9186 34.2194 10.9897 34.1563C11.0686 34.0932 11.1633 34.0616 11.2738 34.0616H17.2169C17.3274 34.0616 17.4181 34.101 17.4892 34.18C17.5602 34.251 17.5957 34.3418 17.5957 34.4523C17.5957 34.5549 17.5602 34.6377 17.4892 34.7009C17.4181 34.764 17.3274 34.7956 17.2169 34.7956H11.2738ZM14.8965 40.2651C14.7702 40.2651 14.6715 40.2178 14.6005 40.123C14.5373 40.0283 14.5176 39.9139 14.5413 39.7797L15.8317 32.2858C15.8475 32.1911 15.887 32.1161 15.9501 32.0608C16.0132 32.0056 16.0922 31.978 16.1869 31.978C16.3132 31.978 16.4079 32.0253 16.471 32.12C16.542 32.2068 16.5657 32.3173 16.542 32.4515L15.2516 39.9573C15.2358 40.052 15.1964 40.127 15.1332 40.1822C15.0701 40.2375 14.9912 40.2651 14.8965 40.2651ZM10.8002 38.1223C10.6976 38.1223 10.6069 38.0868 10.5279 38.0157C10.4569 37.9368 10.4214 37.846 10.4214 37.7434C10.4214 37.6408 10.4569 37.558 10.5279 37.4948C10.6069 37.4317 10.6976 37.4001 10.8002 37.4001H16.7551C16.8656 37.4001 16.9564 37.4356 17.0274 37.5067C17.0985 37.5777 17.134 37.6685 17.134 37.779C17.134 37.8816 17.0985 37.9644 17.0274 38.0276C16.9564 38.0907 16.8656 38.1223 16.7551 38.1223H10.8002ZM19.3514 31.978C19.4066 31.978 19.4618 31.9898 19.5171 32.0135C19.5802 32.0372 19.6315 32.0766 19.671 32.1319L22.9385 37.0331L22.6189 37.0213L25.8982 32.1319C25.985 32.0135 26.0916 31.9622 26.2178 31.978C26.3126 31.978 26.3915 32.0135 26.4546 32.0845C26.5257 32.1476 26.5612 32.2305 26.5612 32.3331V39.9099C26.5612 40.0047 26.5257 40.0875 26.4546 40.1586C26.3836 40.2296 26.2968 40.2651 26.1942 40.2651C26.0837 40.2651 25.9929 40.2296 25.9219 40.1586C25.8508 40.0875 25.8153 40.0047 25.8153 39.9099V33.0553L26.0284 33.079L23.0332 37.6132C23.0095 37.6606 22.974 37.7 22.9267 37.7316C22.8793 37.7553 22.8241 37.7632 22.7609 37.7553C22.7057 37.7632 22.6504 37.7553 22.5952 37.7316C22.5478 37.7 22.5084 37.6606 22.4768 37.6132L19.4697 33.0316L19.6947 32.8777V39.9099C19.6947 40.0047 19.6592 40.0875 19.5881 40.1586C19.525 40.2296 19.4421 40.2651 19.3395 40.2651C19.2369 40.2651 19.154 40.2296 19.0909 40.1586C19.0278 40.0875 18.9962 40.0047 18.9962 39.9099V32.3331C18.9962 32.2384 19.0278 32.1555 19.0909 32.0845C19.1619 32.0135 19.2488 31.978 19.3514 31.978ZM33.5715 34.2155C33.6741 34.2155 33.757 34.251 33.8201 34.322C33.8911 34.3931 33.9266 34.4799 33.9266 34.5825V39.9099C33.9266 40.0047 33.8911 40.0875 33.8201 40.1586C33.7491 40.2296 33.6662 40.2651 33.5715 40.2651C33.4689 40.2651 33.3821 40.2296 33.311 40.1586C33.2479 40.0875 33.2163 40.0047 33.2163 39.9099V38.5011L33.4176 38.4064C33.4176 38.6274 33.3544 38.8523 33.2282 39.0812C33.1098 39.3101 32.944 39.5232 32.7309 39.7205C32.5178 39.9178 32.2653 40.0796 31.9733 40.2059C31.6891 40.3243 31.3813 40.3835 31.0498 40.3835C30.5131 40.3835 30.0317 40.2454 29.6055 39.9691C29.1872 39.6929 28.8557 39.3141 28.611 38.8326C28.3743 38.3512 28.2559 37.8105 28.2559 37.2107C28.2559 36.5951 28.3782 36.0544 28.6229 35.5888C28.8675 35.1152 29.199 34.7443 29.6173 34.4759C30.0356 34.2076 30.5092 34.0734 31.038 34.0734C31.3774 34.0734 31.6931 34.1326 31.9851 34.251C32.285 34.3694 32.5455 34.5312 32.7664 34.7364C32.9874 34.9416 33.1571 35.1784 33.2755 35.4467C33.4018 35.7072 33.4649 35.9795 33.4649 36.2636L33.2163 36.086V34.5825C33.2163 34.4799 33.2479 34.3931 33.311 34.322C33.3821 34.251 33.4689 34.2155 33.5715 34.2155ZM31.109 39.7205C31.5273 39.7205 31.8983 39.614 32.2219 39.4009C32.5455 39.1799 32.798 38.88 32.9795 38.5011C33.169 38.1144 33.2637 37.6843 33.2637 37.2107C33.2637 36.745 33.169 36.3267 32.9795 35.9558C32.798 35.5848 32.5455 35.2889 32.2219 35.0679C31.8983 34.8469 31.5273 34.7364 31.109 34.7364C30.6986 34.7364 30.3277 34.8429 29.9962 35.056C29.6726 35.2691 29.4161 35.5612 29.2267 35.9321C29.0451 36.3031 28.9544 36.7293 28.9544 37.2107C28.9544 37.6843 29.0451 38.1144 29.2267 38.5011C29.4161 38.88 29.6726 39.1799 29.9962 39.4009C30.3198 39.614 30.6907 39.7205 31.109 39.7205ZM36.2168 40.2651C36.1142 40.2651 36.0274 40.2296 35.9564 40.1586C35.8932 40.0875 35.8616 40.0047 35.8616 39.9099V31.8596C35.8616 31.7649 35.8932 31.682 35.9564 31.611C36.0274 31.5399 36.1142 31.5044 36.2168 31.5044C36.3194 31.5044 36.4023 31.5399 36.4654 31.611C36.5365 31.682 36.572 31.7649 36.572 31.8596V39.9099C36.572 40.0047 36.5365 40.0875 36.4654 40.1586C36.4023 40.2296 36.3194 40.2651 36.2168 40.2651ZM40.242 34.1918C40.3288 34.1918 40.4077 34.2313 40.4788 34.3102C40.5498 34.3812 40.5853 34.4602 40.5853 34.547C40.5853 34.6496 40.5419 34.7403 40.4551 34.8193L36.4773 38.2052L36.4417 37.3646L39.9934 34.3102C40.0644 34.2313 40.1473 34.1918 40.242 34.1918ZM40.3367 40.2651C40.2341 40.2651 40.1473 40.2217 40.0762 40.1349L37.377 37.2699L37.9098 36.7845L40.5853 39.6377C40.6563 39.7166 40.6919 39.8073 40.6919 39.9099C40.6919 40.0204 40.6485 40.1073 40.5616 40.1704C40.4748 40.2335 40.3998 40.2651 40.3367 40.2651ZM42.8498 39.9099C42.8498 40.0047 42.8142 40.0875 42.7432 40.1586C42.6722 40.2296 42.5893 40.2651 42.4946 40.2651C42.392 40.2651 42.3052 40.2296 42.2341 40.1586C42.171 40.0875 42.1394 40.0047 42.1394 39.9099V31.8596C42.1394 31.7649 42.1749 31.682 42.246 31.611C42.317 31.5399 42.3999 31.5044 42.4946 31.5044C42.5972 31.5044 42.6801 31.5399 42.7432 31.611C42.8142 31.682 42.8498 31.7649 42.8498 31.8596V39.9099ZM50.3165 37.2344C50.3165 37.8342 50.1863 38.3748 49.9258 38.8563C49.6654 39.3298 49.3102 39.7047 48.8603 39.981C48.4105 40.2493 47.8975 40.3835 47.3213 40.3835C46.7609 40.3835 46.2519 40.2493 45.7941 39.981C45.3442 39.7047 44.9851 39.3298 44.7168 38.8563C44.4563 38.3748 44.3261 37.8342 44.3261 37.2344C44.3261 36.6267 44.4563 36.086 44.7168 35.6125C44.9851 35.1389 45.3442 34.764 45.7941 34.4878C46.2519 34.2115 46.7609 34.0734 47.3213 34.0734C47.8975 34.0734 48.4105 34.2115 48.8603 34.4878C49.3102 34.764 49.6654 35.1389 49.9258 35.6125C50.1863 36.086 50.3165 36.6267 50.3165 37.2344ZM49.6062 37.2344C49.6062 36.7529 49.5075 36.3267 49.3102 35.9558C49.1129 35.5769 48.8406 35.281 48.4933 35.0679C48.154 34.8469 47.7633 34.7364 47.3213 34.7364C46.8951 34.7364 46.5084 34.8469 46.1611 35.0679C45.8138 35.281 45.5376 35.5769 45.3324 35.9558C45.1351 36.3267 45.0364 36.7529 45.0364 37.2344C45.0364 37.7158 45.1351 38.142 45.3324 38.513C45.5376 38.8839 45.8138 39.1799 46.1611 39.4009C46.5084 39.614 46.8951 39.7205 47.3213 39.7205C47.7633 39.7205 48.154 39.614 48.4933 39.4009C48.8406 39.1799 49.1129 38.8839 49.3102 38.513C49.5075 38.142 49.6062 37.7158 49.6062 37.2344ZM57.4614 37.2344C57.4614 37.8342 57.3312 38.3748 57.0707 38.8563C56.8103 39.3298 56.4551 39.7047 56.0052 39.981C55.5554 40.2493 55.0424 40.3835 54.4662 40.3835C53.9058 40.3835 53.3968 40.2493 52.939 39.981C52.4891 39.7047 52.13 39.3298 51.8617 38.8563C51.6012 38.3748 51.471 37.8342 51.471 37.2344C51.471 36.6267 51.6012 36.086 51.8617 35.6125C52.13 35.1389 52.4891 34.764 52.939 34.4878C53.3968 34.2115 53.9058 34.0734 54.4662 34.0734C55.0424 34.0734 55.5554 34.2115 56.0052 34.4878C56.4551 34.764 56.8103 35.1389 57.0707 35.6125C57.3312 36.086 57.4614 36.6267 57.4614 37.2344ZM56.7511 37.2344C56.7511 36.7529 56.6524 36.3267 56.4551 35.9558C56.2578 35.5769 55.9855 35.281 55.6382 35.0679C55.2989 34.8469 54.9082 34.7364 54.4662 34.7364C54.04 34.7364 53.6533 34.8469 53.306 35.0679C52.9587 35.281 52.6825 35.5769 52.4773 35.9558C52.28 36.3267 52.1813 36.7529 52.1813 37.2344C52.1813 37.7158 52.28 38.142 52.4773 38.513C52.6825 38.8839 52.9587 39.1799 53.306 39.4009C53.6533 39.614 54.04 39.7205 54.4662 39.7205C54.9082 39.7205 55.2989 39.614 55.6382 39.4009C55.9855 39.1799 56.2578 38.8839 56.4551 38.513C56.6524 38.142 56.7511 37.7158 56.7511 37.2344ZM61.8242 34.0734C62.3451 34.0734 62.7594 34.18 63.0673 34.3931C63.383 34.5983 63.6079 34.8824 63.7421 35.2455C63.8841 35.6006 63.9552 35.9953 63.9552 36.4293V39.9099C63.9552 40.0047 63.9196 40.0875 63.8486 40.1586C63.7776 40.2296 63.6947 40.2651 63.6 40.2651C63.4895 40.2651 63.4027 40.2296 63.3395 40.1586C63.2764 40.0875 63.2448 40.0047 63.2448 39.9099V36.4649C63.2448 36.1492 63.1935 35.8611 63.0909 35.6006C62.9883 35.3402 62.8186 35.131 62.5819 34.9732C62.353 34.8153 62.0491 34.7364 61.6703 34.7364C61.3309 34.7364 61.0073 34.8153 60.6995 34.9732C60.3996 35.131 60.1549 35.3402 59.9655 35.6006C59.7761 35.8611 59.6814 36.1492 59.6814 36.4649V39.9099C59.6814 40.0047 59.6458 40.0875 59.5748 40.1586C59.5038 40.2296 59.4209 40.2651 59.3262 40.2651C59.2157 40.2651 59.1289 40.2296 59.0657 40.1586C59.0026 40.0875 58.971 40.0047 58.971 39.9099V34.6062C58.971 34.5115 59.0026 34.4286 59.0657 34.3576C59.1368 34.2865 59.2236 34.251 59.3262 34.251C59.4288 34.251 59.5117 34.2865 59.5748 34.3576C59.6458 34.4286 59.6814 34.5115 59.6814 34.6062V35.6006L59.4091 36.0268C59.4249 35.7743 59.5038 35.5335 59.6458 35.3047C59.7958 35.0679 59.9852 34.8587 60.2141 34.6772C60.443 34.4878 60.6955 34.3418 60.9718 34.2392C61.2559 34.1287 61.54 34.0734 61.8242 34.0734ZM66.502 39.9099C66.502 40.0047 66.4665 40.0875 66.3954 40.1586C66.3244 40.2296 66.2415 40.2651 66.1468 40.2651C66.0442 40.2651 65.9574 40.2296 65.8864 40.1586C65.8232 40.0875 65.7917 40.0047 65.7917 39.9099V34.4641C65.7917 34.3694 65.8232 34.2865 65.8864 34.2155C65.9574 34.1445 66.0442 34.1089 66.1468 34.1089C66.2494 34.1089 66.3323 34.1445 66.3954 34.2155C66.4665 34.2865 66.502 34.3694 66.502 34.4641V39.9099ZM66.1468 33.3157C65.9811 33.3157 65.8548 33.2802 65.768 33.2092C65.689 33.1303 65.6496 33.0198 65.6496 32.8777V32.7593C65.6496 32.6173 65.693 32.5107 65.7798 32.4397C65.8745 32.3607 66.0008 32.3213 66.1587 32.3213C66.3086 32.3213 66.4231 32.3607 66.502 32.4397C66.5888 32.5107 66.6322 32.6173 66.6322 32.7593V32.8777C66.6322 33.0198 66.5888 33.1303 66.502 33.2092C66.4231 33.2802 66.3047 33.3157 66.1468 33.3157ZM71.2004 34.0734C71.7213 34.0734 72.1357 34.18 72.4435 34.3931C72.7592 34.5983 72.9841 34.8824 73.1183 35.2455C73.2604 35.6006 73.3314 35.9953 73.3314 36.4293V39.9099C73.3314 40.0047 73.2959 40.0875 73.2248 40.1586C73.1538 40.2296 73.0709 40.2651 72.9762 40.2651C72.8657 40.2651 72.7789 40.2296 72.7158 40.1586C72.6526 40.0875 72.6211 40.0047 72.6211 39.9099V36.4649C72.6211 36.1492 72.5698 35.8611 72.4672 35.6006C72.3646 35.3402 72.1949 35.131 71.9581 34.9732C71.7292 34.8153 71.4253 34.7364 71.0465 34.7364C70.7071 34.7364 70.3835 34.8153 70.0757 34.9732C69.7758 35.131 69.5311 35.3402 69.3417 35.6006C69.1523 35.8611 69.0576 36.1492 69.0576 36.4649V39.9099C69.0576 40.0047 69.0221 40.0875 68.951 40.1586C68.88 40.2296 68.7971 40.2651 68.7024 40.2651C68.5919 40.2651 68.5051 40.2296 68.442 40.1586C68.3788 40.0875 68.3473 40.0047 68.3473 39.9099V34.6062C68.3473 34.5115 68.3788 34.4286 68.442 34.3576C68.513 34.2865 68.5998 34.251 68.7024 34.251C68.805 34.251 68.8879 34.2865 68.951 34.3576C69.0221 34.4286 69.0576 34.5115 69.0576 34.6062V35.6006L68.7853 36.0268C68.8011 35.7743 68.88 35.5335 69.0221 35.3047C69.172 35.0679 69.3614 34.8587 69.5903 34.6772C69.8192 34.4878 70.0718 34.3418 70.348 34.2392C70.6321 34.1287 70.9163 34.0734 71.2004 34.0734ZM78.1394 32.8895L75.2626 40.0402C75.231 40.1191 75.1876 40.1783 75.1324 40.2178C75.0771 40.2572 75.014 40.2769 74.9429 40.2769C74.8324 40.2769 74.7496 40.2493 74.6943 40.1941C74.6391 40.1309 74.6075 40.056 74.5996 39.9691C74.5917 39.9297 74.5957 39.8823 74.6115 39.8271L77.7369 32.1792C77.7764 32.0924 77.8237 32.0332 77.879 32.0016C77.9421 31.9622 78.0131 31.9424 78.0921 31.9424C78.171 31.9424 78.2381 31.9661 78.2933 32.0135C78.3565 32.0529 78.4038 32.1082 78.4354 32.1792L81.549 39.7916C81.5648 39.8389 81.5727 39.8863 81.5727 39.9336C81.5727 40.0441 81.5371 40.1309 81.4661 40.1941C81.3951 40.2493 81.3122 40.2769 81.2175 40.2769C81.1386 40.2769 81.0675 40.2572 81.0044 40.2178C80.9491 40.1704 80.9057 40.1112 80.8742 40.0402L77.9263 32.8422L78.1394 32.8895ZM75.9492 37.8737L76.2452 37.1752H79.9152L80.0573 37.8737H75.9492ZM83.7209 40.8097C83.7209 41.1885 83.6302 41.5082 83.4486 41.7686C83.275 42.037 83.058 42.2422 82.7975 42.3842C82.537 42.5263 82.2766 42.5973 82.0161 42.5973C81.9135 42.5973 81.8346 42.5658 81.7794 42.5026C81.7162 42.4395 81.6847 42.3645 81.6847 42.2777V42.2303C81.6847 42.1356 81.7162 42.0607 81.7794 42.0054C81.8425 41.9502 81.9135 41.9146 81.9925 41.8989C82.174 41.8594 82.3397 41.7923 82.4897 41.6976C82.6475 41.6029 82.7738 41.4727 82.8685 41.3069C82.9632 41.1412 83.0106 40.9399 83.0106 40.7031V34.5943C83.0106 34.4996 83.0422 34.4167 83.1053 34.3457C83.1763 34.2747 83.2632 34.2392 83.3658 34.2392C83.4684 34.2392 83.5512 34.2747 83.6144 34.3457C83.6854 34.4167 83.7209 34.4996 83.7209 34.5943V40.8097ZM83.3658 33.3039C83.2 33.3039 83.0737 33.2684 82.9869 33.1974C82.908 33.1184 82.8685 33.0079 82.8685 32.8659V32.7475C82.8685 32.6054 82.9119 32.4989 82.9988 32.4278C83.0935 32.3489 83.2198 32.3094 83.3776 32.3094C83.5276 32.3094 83.642 32.3489 83.7209 32.4278C83.8077 32.4989 83.8512 32.6054 83.8512 32.7475V32.8659C83.8512 33.0079 83.8077 33.1184 83.7209 33.1974C83.642 33.2684 83.5236 33.3039 83.3658 33.3039ZM91.0081 34.2155C91.1107 34.2155 91.1935 34.251 91.2567 34.322C91.3277 34.3931 91.3632 34.4799 91.3632 34.5825V39.9099C91.3632 40.0047 91.3277 40.0875 91.2567 40.1586C91.1857 40.2296 91.1028 40.2651 91.0081 40.2651C90.9055 40.2651 90.8187 40.2296 90.7476 40.1586C90.6845 40.0875 90.6529 40.0047 90.6529 39.9099V38.5011L90.8542 38.4064C90.8542 38.6274 90.791 38.8523 90.6647 39.0812C90.5464 39.3101 90.3806 39.5232 90.1675 39.7205C89.9544 39.9178 89.7019 40.0796 89.4098 40.2059C89.1257 40.3243 88.8179 40.3835 88.4864 40.3835C87.9497 40.3835 87.4683 40.2454 87.0421 39.9691C86.6238 39.6929 86.2923 39.3141 86.0476 38.8326C85.8108 38.3512 85.6925 37.8105 85.6925 37.2107C85.6925 36.5951 85.8148 36.0544 86.0595 35.5888C86.3041 35.1152 86.6356 34.7443 87.0539 34.4759C87.4722 34.2076 87.9458 34.0734 88.4746 34.0734C88.814 34.0734 89.1297 34.1326 89.4217 34.251C89.7216 34.3694 89.982 34.5312 90.203 34.7364C90.424 34.9416 90.5937 35.1784 90.7121 35.4467C90.8384 35.7072 90.9015 35.9795 90.9015 36.2636L90.6529 36.086V34.5825C90.6529 34.4799 90.6845 34.3931 90.7476 34.322C90.8187 34.251 90.9055 34.2155 91.0081 34.2155ZM88.5456 39.7205C88.9639 39.7205 89.3349 39.614 89.6584 39.4009C89.982 39.1799 90.2346 38.88 90.4161 38.5011C90.6056 38.1144 90.7003 37.6843 90.7003 37.2107C90.7003 36.745 90.6056 36.3267 90.4161 35.9558C90.2346 35.5848 89.982 35.2889 89.6584 35.0679C89.3349 34.8469 88.9639 34.7364 88.5456 34.7364C88.1352 34.7364 87.7642 34.8429 87.4328 35.056C87.1092 35.2691 86.8527 35.5612 86.6632 35.9321C86.4817 36.3031 86.3909 36.7293 86.3909 37.2107C86.3909 37.6843 86.4817 38.1144 86.6632 38.5011C86.8527 38.88 87.1092 39.1799 87.4328 39.4009C87.7564 39.614 88.1273 39.7205 88.5456 39.7205Z" fill="#402E32"/>
</svg>
